<svg xmlns="http://www.w3.org/2000/svg" viewBox="0 0 64 64" fill="none">
  <!-- Left bubble (source culture) -->
  <path d="M6 14C6 7.373 11.373 2 18 2h14c6.627 0 12 5.373 12 12v18c0 6.627-5.373 12-12 12h-6l-8 10V44h-6c-3.314 0-6-2.686-6-6V14z" fill="#2563eb"/>
  <!-- Right bubble (target culture) -->
  <path d="M22 22c0-6.627 5.373-12 12-12h14c6.627 0 12 5.373 12 12v18c0 6.627-5.373 12-12 12h-6l-8 10V52h-6c-3.314 0-6-2.686-6-6V22z" fill="#0284c7" opacity="0.85"/>
  <!-- Bridge arrow -->
  <path d="M30 30h10m0 0l-4-4m4 4l-4 4" stroke="white" stroke-width="2.5" stroke-linecap="round" stroke-linejoin="round"/>
  <!-- Culture dots -->
  <circle cx="18" cy="22" r="2.5" fill="white" opacity="0.6"/>
  <circle cx="26" cy="22" r="2.5" fill="white" opacity="0.6"/>
  <circle cx="44" cy="38" r="2.5" fill="white" opacity="0.6"/>
  <circle cx="52" cy="38" r="2.5" fill="white" opacity="0.6"/>
</svg>
